<svg xmlns="http://www.w3.org/2000/svg" aria-label="Vite logo" role="img" viewBox="0 0 410 404">
  <defs>
    <linearGradient id="a" x1="6%" x2="235%" y1="9%" y2="78%">
      <stop offset="0%" stop-color="#41D1FF" />
      <stop offset="100%" stop-color="#BD34FE" />
    </linearGradient>
    <linearGradient id="b" x1="194%" x2="50%" y1="1%" y2="89%">
      <stop offset="0%" stop-color="#FFEA83" />
      <stop offset="8%" stop-color="#FFDD35" />
      <stop offset="100%" stop-color="#FFA800" />
    </linearGradient>
  </defs>
  <path
    fill="url(#a)"
    d="M399.641 59.524L215.643 388.545c-3.774 6.746-13.442 6.79-17.278.08L10.163 59.583c-4.143-7.238 2.036-16.09 10.124-14.496l184.59 36.89a10 10 0 0 0 3.923 0l180.716-36.953c8.102-1.657 14.32 7.233 10.125 14.5Z"
  />
  <path
    fill="url(#b)"
    d="M292.965.953L156.37 27.714a5 5 0 0 0-4.053 4.464l-8.4 141.78a5 5 0 0 0 6.05 5.238l38.028-8.777a5 5 0 0 1 6.015 5.908l-11.302 55.334a5 5 0 0 0 6.17 5.853l23.49-5.778a5 5 0 0 1 6.2 5.767l-17.964 87.173c-1.124 5.45 6.132 8.423 9.152 3.75l2.018-3.122 111.328-222.13a5 5 0 0 0-5.527-7.164l-39.16 7.56a5 5 0 0 1-5.767-6.38l25.54-88.546a5 5 0 0 0-5.622-6.21Z"
  />
</svg>
<svg xmlns="http://www.w3.org/2000/svg" xmlns:xlink="http://www.w3.org/1999/xlink" aria-hidden="true" role="img" class="iconify iconify--logos" width="31.88" height="32" preserveAspectRatio="xMidYMid meet" viewBox="0 0 256 257"><defs><linearGradient id="IconifyId1813088fe1fbc01fb466" x1="-.828%" x2="57.636%" y1="7.652%" y2="78.411%"><stop offset="0%" stop-color="#41D1FF"></stop><stop offset="100%" stop-color="#BD34FE"></stop></linearGradient><linearGradient id="IconifyId1813088fe1fbc01fb467" x1="43.376%" x2="50.316%" y1="2.242%" y2="89.03%"><stop offset="0%" stop-color="#FFEA83"></stop><stop offset="8.333%" stop-color="#FFDD35"></stop><stop offset="100%" stop-color="#FFA800"></stop></linearGradient></defs><path fill="url(#IconifyId1813088fe1fbc01fb466)" d="M255.153 37.938L134.897 252.976c-2.483 4.44-8.862 4.466-11.382.048L.875 37.958c-2.746-4.814 1.371-10.646 6.827-9.67l120.385 21.517a6.537 6.537 0 0 0 2.322-.004l117.867-21.483c5.438-.991 9.574 4.796 6.877 9.62Z"></path><path fill="url(#IconifyId1813088fe1fbc01fb467)" d="M185.432.063L96.44 17.501a3.268 3.268 0 0 0-2.634 3.014l-5.474 92.456a3.268 3.268 0 0 0 3.997 3.378l24.777-5.718c2.318-.535 4.413 1.507 3.936 3.838l-7.361 36.047c-.495 2.426 1.782 4.5 4.151 3.78l15.304-4.649c2.372-.72 4.652 1.36 4.15 3.788l-11.698 56.621c-.732 3.542 3.979 5.473 5.943 2.437l1.313-2.028l72.516-144.72c1.215-2.423-.88-5.186-3.54-4.672l-25.505 4.922c-2.396.462-4.435-1.77-3.759-4.114l16.646-57.705c.677-2.35-1.37-4.583-3.769-4.113Z"></path></svg>